<svg width="1400" height="1100" viewBox="0 0 1400 1100" fill="none" xmlns="http://www.w3.org/2000/svg">
  <defs>
    <linearGradient id="bg" x1="0" y1="0" x2="1" y2="1">
      <stop offset="0%" stop-color="#0c7f63" stop-opacity="0.95" />
      <stop offset="50%" stop-color="#0aa37f" stop-opacity="0.9" />
      <stop offset="100%" stop-color="#0b5566" stop-opacity="0.9" />
    </linearGradient>
    <linearGradient id="sun" x1="0" y1="0" x2="0" y2="1">
      <stop offset="0%" stop-color="#FFD166" />
      <stop offset="100%" stop-color="#FF9E1C" />
    </linearGradient>
    <linearGradient id="hills" x1="0" y1="0" x2="1" y2="0">
      <stop offset="0%" stop-color="#0fb18a" stop-opacity="0.75" />
      <stop offset="100%" stop-color="#0a8f6c" stop-opacity="0.85" />
    </linearGradient>
    <filter id="shadow" x="-20%" y="-20%" width="140%" height="140%">
      <feGaussianBlur in="SourceAlpha" stdDeviation="18" result="blur" />
      <feOffset dy="8" result="offset" />
      <feColorMatrix in="offset" type="matrix"
        values="0 0 0 0 0
                0 0 0 0 0
                0 0 0 0 0
                0 0 0 0.25 0" />
      <feBlend in="SourceGraphic" in2="offset" mode="normal" />
    </filter>
  </defs>
  <rect width="1400" height="1100" fill="url(#bg)" />
  <circle cx="1180" cy="160" r="90" fill="url(#sun)" opacity="0.9" />
  <path d="M0 720C220 640 420 660 650 720C890 784 1140 770 1400 700V1100H0V720Z" fill="url(#hills)" />
  <path d="M100 760C240 740 320 780 450 820C600 868 770 880 940 840C1100 804 1240 736 1400 750V1100H0V760Z" fill="#0b7a63" opacity="0.65" />
  <g filter="url(#shadow)">
    <circle cx="240" cy="360" r="120" fill="white" fill-opacity="0.06" />
    <circle cx="520" cy="260" r="120" fill="white" fill-opacity="0.05" />
    <circle cx="860" cy="320" r="140" fill="white" fill-opacity="0.06" />
  </g>
  <g stroke="#ffffff" stroke-width="6" stroke-linecap="round" stroke-linejoin="round">
    <path d="M460 640C460 574 514 520 580 520H670C736 520 790 574 790 640V780H460V640Z" fill="#FDE68A" fill-opacity="0.65" />
    <circle cx="623" cy="430" r="78" fill="#FFEBD2" />
    <path d="M568 430C568 398 594 372 626 372H632C664 372 690 398 690 430V456H568V430Z" fill="#0b7a63" />
    <path d="M530 790H720" />
    <path d="M560 780V908" />
    <path d="M690 780V908" />
  </g>
  <g stroke="#ffffff" stroke-width="6" stroke-linecap="round" stroke-linejoin="round">
    <path d="M260 690C260 632 306 586 364 586H422C480 586 526 632 526 690V820H260V690Z" fill="#7DD3FC" fill-opacity="0.55" />
    <circle cx="394" cy="520" r="72" fill="#FFE4E6" />
    <path d="M342 520C342 490 366 466 396 466H394C424 466 448 490 448 520V544H342V520Z" fill="#0f766e" />
    <path d="M300 820H486" />
    <path d="M324 820V946" />
    <path d="M458 820V946" />
  </g>
  <g stroke="#ffffff" stroke-width="6" stroke-linecap="round" stroke-linejoin="round">
    <path d="M830 690C830 626 882 574 946 574H1026C1090 574 1142 626 1142 690V816H830V690Z" fill="#C7D2FE" fill-opacity="0.6" />
    <circle cx="986" cy="504" r="76" fill="#FFEBD2" />
    <path d="M932 504C932 472 958 446 990 446H994C1026 446 1052 472 1052 504V528H932V504Z" fill="#0f766e" />
    <path d="M884 816H1088" />
    <path d="M910 816V942" />
    <path d="M1060 816V942" />
  </g>
  <path d="M620 880C620 858 638 840 660 840H742C764 840 782 858 782 880V960H620V880Z" fill="#F8FAFC" fill-opacity="0.45" stroke="#ffffff" stroke-width="4" stroke-linecap="round" />
  <path d="M670 960V1028" stroke="#ffffff" stroke-width="6" stroke-linecap="round" />
  <path d="M732 960V1028" stroke="#ffffff" stroke-width="6" stroke-linecap="round" />
</svg>
