<svg width="1400" height="1100" viewBox="0 0 1400 1100" fill="none" xmlns="http://www.w3.org/2000/svg">
  <defs>
    <linearGradient id="bg" x1="0" y1="0" x2="1" y2="1">
      <stop offset="0%" stop-color="#0c7f63" stop-opacity="0.95" />
      <stop offset="55%" stop-color="#0aa37f" stop-opacity="0.9" />
      <stop offset="100%" stop-color="#0b5566" stop-opacity="0.9" />
    </linearGradient>
    <linearGradient id="hills" x1="0" y1="0" x2="1" y2="0">
      <stop offset="0%" stop-color="#0fb18a" stop-opacity="0.75" />
      <stop offset="100%" stop-color="#0a8f6c" stop-opacity="0.85" />
    </linearGradient>
    <filter id="shadow" x="-20%" y="-20%" width="140%" height="140%">
      <feGaussianBlur in="SourceAlpha" stdDeviation="18" result="blur" />
      <feOffset dy="8" result="offset" />
      <feColorMatrix
        in="offset"
        type="matrix"
        values="0 0 0 0 0
                0 0 0 0 0
                0 0 0 0 0
                0 0 0 0.25 0"
      />
      <feBlend in="SourceGraphic" in2="offset" mode="normal" />
    </filter>
  </defs>

  <rect width="1400" height="1100" fill="url(#bg)" />
  <circle cx="1180" cy="160" r="90" fill="#FFD166" opacity="0.9" />
  <path d="M0 720C220 640 420 660 650 720C890 784 1140 770 1400 700V1100H0V720Z" fill="url(#hills)" />
  <path d="M100 760C240 740 320 780 450 820C600 868 770 880 940 840C1100 804 1240 736 1400 750V1100H0V760Z" fill="#0b7a63" opacity="0.65" />

  <g filter="url(#shadow)">
    <circle cx="240" cy="360" r="120" fill="white" fill-opacity="0.06" />
    <circle cx="520" cy="260" r="120" fill="white" fill-opacity="0.05" />
    <circle cx="860" cy="320" r="140" fill="white" fill-opacity="0.06" />
  </g>

  <!-- Kids group -->
  <g stroke="#ffffff" stroke-width="6" stroke-linecap="round" stroke-linejoin="round">
    <path d="M420 650C420 580 478 522 548 522H640C710 522 768 580 768 650V792H420V650Z" fill="#FDE68A" fill-opacity="0.7" />
    <circle cx="594" cy="440" r="78" fill="#FFEBD2" />
    <path d="M544 438C544 406 570 380 602 380H606C638 380 664 406 664 438V468H544V438Z" fill="#0b7a63" />
    <circle cx="572" cy="438" r="8" fill="#0f172a" />
    <circle cx="616" cy="438" r="8" fill="#0f172a" />
    <path d="M568 468C582 484 606 484 620 468" stroke="#0f172a" stroke-width="5" />
    <path d="M500 792H690" />
    <path d="M532 792V928" />
    <path d="M660 792V928" />
  </g>

  <g stroke="#ffffff" stroke-width="6" stroke-linecap="round" stroke-linejoin="round">
    <path d="M210 700C210 640 258 592 318 592H374C434 592 482 640 482 700V832H210V700Z" fill="#7DD3FC" fill-opacity="0.6" />
    <circle cx="346" cy="530" r="70" fill="#FFE4E6" />
    <path d="M300 530C300 500 324 476 354 476H350C380 476 404 500 404 530V556H300V530Z" fill="#0f766e" />
    <circle cx="326" cy="528" r="7" fill="#0f172a" />
    <circle cx="366" cy="528" r="7" fill="#0f172a" />
    <path d="M322 552C334 566 358 566 370 552" stroke="#0f172a" stroke-width="5" />
    <path d="M250 832H440" />
    <path d="M274 832V962" />
    <path d="M412 832V962" />
  </g>

  <g stroke="#ffffff" stroke-width="6" stroke-linecap="round" stroke-linejoin="round">
    <path d="M820 700C820 634 874 580 940 580H1030C1096 580 1150 634 1150 700V826H820V700Z" fill="#C7D2FE" fill-opacity="0.65" />
    <circle cx="986" cy="514" r="74" fill="#FFEBD2" />
    <path d="M936 512C936 482 960 458 990 458H994C1024 458 1048 482 1048 512V538H936V512Z" fill="#0f766e" />
    <circle cx="964" cy="512" r="7" fill="#0f172a" />
    <circle cx="1008" cy="512" r="7" fill="#0f172a" />
    <path d="M960 538C972 552 1000 552 1012 538" stroke="#0f172a" stroke-width="5" />
    <path d="M872 826H1100" />
    <path d="M900 826V952" />
    <path d="M1070 826V952" />
  </g>

  <g stroke="#ffffff" stroke-width="5" stroke-linecap="round" stroke-linejoin="round">
    <circle cx="704" cy="820" r="30" fill="#FFEBD2" />
    <path d="M682 820C682 802 696 788 714 788H716C734 788 748 802 748 820V838H682V820Z" fill="#0b7a63" />
    <circle cx="694" cy="818" r="4" fill="#0f172a" />
    <circle cx="714" cy="818" r="4" fill="#0f172a" />
    <path d="M694 834C700 840 708 840 714 834" stroke="#0f172a" stroke-width="4" />
    <path d="M656 880C656 860 672 844 692 844H716C736 844 752 860 752 880V956H656V880Z" fill="#F8FAFC" fill-opacity="0.6" />
    <path d="M686 956V1024" />
    <path d="M724 956V1024" />
  </g>
</svg>